<svg width="371" height="142" viewBox="0 0 371 142" fill="none" xmlns="http://www.w3.org/2000/svg">
<rect width="252" height="140" rx="20" fill="#B690FF" fill-opacity="0.11"/>
<path d="M174.653 117.93C174.653 119.051 175.022 119.912 175.76 120.513C176.525 121.114 177.55 121.415 178.835 121.415C179.983 121.415 180.83 121.224 181.377 120.841C181.924 120.458 182.388 119.884 182.771 119.119C183.126 118.408 183.605 118.053 184.206 118.053H193.062C193.308 118.053 193.513 118.149 193.677 118.34C193.868 118.504 193.964 118.709 193.964 118.955C193.964 120.622 193.404 122.262 192.283 123.875C191.162 125.46 189.454 126.786 187.158 127.852C184.889 128.891 182.115 129.41 178.835 129.41C175.91 129.41 173.3 128.973 171.004 128.098C168.735 127.196 166.931 125.829 165.592 123.998C164.253 122.139 163.583 119.83 163.583 117.069V112.231C163.583 109.47 164.253 107.174 165.592 105.343C166.931 103.484 168.735 102.118 171.004 101.243C173.3 100.341 175.91 99.89 178.835 99.89C182.115 99.89 184.889 100.423 187.158 101.489C189.454 102.528 191.162 103.853 192.283 105.466C193.404 107.051 193.964 108.678 193.964 110.345C193.964 110.591 193.868 110.81 193.677 111.001C193.513 111.165 193.308 111.247 193.062 111.247H184.206C183.605 111.247 183.126 110.892 182.771 110.181C182.388 109.416 181.924 108.842 181.377 108.459C180.83 108.076 179.983 107.885 178.835 107.885C177.55 107.885 176.525 108.186 175.76 108.787C175.022 109.388 174.653 110.249 174.653 111.37V117.93ZM228.511 117.151C228.511 121.333 227.117 124.422 224.329 126.417C221.568 128.412 217.878 129.41 213.259 129.41C208.64 129.41 204.936 128.412 202.148 126.417C199.387 124.422 198.007 121.306 198.007 117.069V112.231C198.007 109.443 198.663 107.133 199.975 105.302C201.314 103.443 203.132 102.077 205.428 101.202C207.724 100.327 210.334 99.89 213.259 99.89C216.184 99.89 218.78 100.327 221.049 101.202C223.345 102.077 225.163 103.43 226.502 105.261C227.841 107.092 228.511 109.388 228.511 112.149V117.151ZM209.077 117.93C209.077 119.051 209.446 119.912 210.184 120.513C210.949 121.114 211.974 121.415 213.259 121.415C214.544 121.415 215.555 121.114 216.293 120.513C217.058 119.884 217.441 119.01 217.441 117.889V111.411C217.441 110.29 217.058 109.429 216.293 108.828C215.555 108.199 214.544 107.885 213.259 107.885C211.974 107.885 210.949 108.186 210.184 108.787C209.446 109.388 209.077 110.249 209.077 111.37V117.93ZM253.464 101.407C253.874 100.669 254.462 100.3 255.227 100.3H262.73C263.031 100.3 263.29 100.409 263.509 100.628C263.728 100.847 263.837 101.106 263.837 101.407V127.893C263.837 128.194 263.728 128.453 263.509 128.672C263.29 128.891 263.031 129 262.73 129H255.309C255.008 129 254.749 128.891 254.53 128.672C254.311 128.453 254.202 128.194 254.202 127.893V115.183L251.209 121.087C251.127 121.278 250.936 121.497 250.635 121.743C250.334 121.989 249.952 122.112 249.487 122.112H246.699C246.234 122.112 245.852 121.989 245.551 121.743C245.25 121.497 245.059 121.278 244.977 121.087L241.984 115.183V127.893C241.984 128.194 241.875 128.453 241.656 128.672C241.437 128.891 241.178 129 240.877 129H233.456C233.155 129 232.896 128.891 232.677 128.672C232.458 128.453 232.349 128.194 232.349 127.893V101.407C232.349 101.106 232.458 100.847 232.677 100.628C232.896 100.409 233.155 100.3 233.456 100.3H240.959C241.724 100.3 242.312 100.669 242.722 101.407L248.093 111.247L253.464 101.407Z" fill="white"/>
<path d="M288.503 120.595H295.924C296.225 120.595 296.484 120.704 296.703 120.923C296.922 121.142 297.031 121.401 297.031 121.702V127.893C297.031 128.194 296.922 128.453 296.703 128.672C296.484 128.891 296.225 129 295.924 129H269.93C269.629 129 269.37 128.891 269.151 128.672C268.932 128.453 268.823 128.194 268.823 127.893V121.702C268.823 121.401 268.932 121.142 269.151 120.923C269.37 120.704 269.629 120.595 269.93 120.595H277.433V108.705H269.93C269.629 108.705 269.37 108.596 269.151 108.377C268.932 108.158 268.823 107.899 268.823 107.598V101.407C268.823 101.106 268.932 100.847 269.151 100.628C269.37 100.409 269.629 100.3 269.93 100.3H295.924C296.225 100.3 296.484 100.409 296.703 100.628C296.922 100.847 297.031 101.106 297.031 101.407V107.598C297.031 107.899 296.922 108.158 296.703 108.377C296.484 108.596 296.225 108.705 295.924 108.705H288.503V120.595ZM313.989 117.93C313.989 119.051 314.358 119.912 315.096 120.513C315.861 121.114 316.886 121.415 318.171 121.415C319.319 121.415 320.166 121.224 320.713 120.841C321.26 120.458 321.724 119.884 322.107 119.119C322.462 118.408 322.941 118.053 323.542 118.053H332.398C332.644 118.053 332.849 118.149 333.013 118.34C333.204 118.504 333.3 118.709 333.3 118.955C333.3 120.622 332.74 122.262 331.619 123.875C330.498 125.46 328.79 126.786 326.494 127.852C324.225 128.891 321.451 129.41 318.171 129.41C315.246 129.41 312.636 128.973 310.34 128.098C308.071 127.196 306.267 125.829 304.928 123.998C303.589 122.139 302.919 119.83 302.919 117.069V112.231C302.919 109.47 303.589 107.174 304.928 105.343C306.267 103.484 308.071 102.118 310.34 101.243C312.636 100.341 315.246 99.89 318.171 99.89C321.451 99.89 324.225 100.423 326.494 101.489C328.79 102.528 330.498 103.853 331.619 105.466C332.74 107.051 333.3 108.678 333.3 110.345C333.3 110.591 333.204 110.81 333.013 111.001C332.849 111.165 332.644 111.247 332.398 111.247H323.542C322.941 111.247 322.462 110.892 322.107 110.181C321.724 109.416 321.26 108.842 320.713 108.459C320.166 108.076 319.319 107.885 318.171 107.885C316.886 107.885 315.861 108.186 315.096 108.787C314.358 109.388 313.989 110.249 313.989 111.37V117.93ZM354.85 110.714C357.857 111.042 360.262 111.575 362.066 112.313C363.897 113.051 365.223 114.021 366.043 115.224C366.863 116.427 367.273 117.93 367.273 119.734C367.273 121.702 366.631 123.424 365.346 124.9C364.089 126.349 362.339 127.469 360.098 128.262C357.857 129.027 355.301 129.41 352.431 129.41C349.233 129.41 346.527 129.014 344.313 128.221C342.099 127.428 340.445 126.376 339.352 125.064C338.259 123.725 337.712 122.262 337.712 120.677C337.712 120.404 337.794 120.185 337.958 120.021C338.149 119.857 338.382 119.775 338.655 119.775H347.06C347.634 119.775 348.099 119.953 348.454 120.308C348.919 120.745 349.438 121.046 350.012 121.21C350.586 121.347 351.392 121.415 352.431 121.415C355.028 121.415 356.326 121.019 356.326 120.226C356.326 119.898 356.148 119.625 355.793 119.406C355.465 119.16 354.864 118.955 353.989 118.791C353.142 118.6 351.884 118.408 350.217 118.217C346.472 117.78 343.602 116.85 341.607 115.429C339.612 113.98 338.614 111.944 338.614 109.32C338.614 107.461 339.174 105.821 340.295 104.4C341.416 102.979 343.001 101.872 345.051 101.079C347.128 100.286 349.534 99.89 352.267 99.89C355.11 99.89 357.597 100.341 359.729 101.243C361.861 102.118 363.487 103.211 364.608 104.523C365.729 105.835 366.289 107.12 366.289 108.377C366.289 108.65 366.193 108.869 366.002 109.033C365.838 109.197 365.606 109.279 365.305 109.279H356.49C356.025 109.279 355.602 109.115 355.219 108.787C354.918 108.514 354.563 108.295 354.153 108.131C353.743 107.967 353.114 107.885 352.267 107.885C350.436 107.885 349.52 108.268 349.52 109.033C349.52 109.443 349.875 109.771 350.586 110.017C351.297 110.236 352.718 110.468 354.85 110.714Z" fill="#B690FF"/>
<path d="M65.6641 58.6035C65.6641 59.5801 65.5664 60.7194 65.3711 62.0215C65.1758 63.291 64.8991 64.6419 64.541 66.0742C64.2155 67.474 63.8249 68.9225 63.3691 70.4199C62.946 71.9173 62.4902 73.3659 62.002 74.7656C61.5137 76.1328 61.0091 77.4186 60.4883 78.623C60 79.7949 59.528 80.7878 59.0723 81.6016C58.877 81.9271 58.5677 82.2689 58.1445 82.627C57.7539 82.9525 57.347 83.3105 56.9238 83.7012C56.5007 84.0592 56.1263 84.4173 55.8008 84.7754C55.4753 85.1335 55.3125 85.4753 55.3125 85.8008C55.0521 85.8333 54.6452 85.9147 54.0918 86.0449C53.5384 86.1426 52.9525 86.2891 52.334 86.4844C51.748 86.6471 51.1947 86.8424 50.6738 87.0703C50.1855 87.2656 49.8926 87.4609 49.7949 87.6562C49.4368 88.3398 49.209 88.7956 49.1113 89.0234C49.0462 89.2513 48.9648 89.3978 48.8672 89.4629C48.7695 89.4954 48.5742 89.5117 48.2812 89.5117C48.0208 89.4792 47.5 89.5443 46.7188 89.707C46.4258 89.7721 46.0514 89.8698 45.5957 90C45.1725 90.1302 44.7168 90.2604 44.2285 90.3906C43.7728 90.5208 43.3333 90.6185 42.9102 90.6836C42.487 90.7812 42.1452 90.8301 41.8848 90.8301C41.1686 90.8301 40.4688 90.7161 39.7852 90.4883C39.1341 90.2604 38.4505 90.1465 37.7344 90.1465C37.2786 90.1465 36.8717 90.2116 36.5137 90.3418C35.3092 90.7975 34.1536 91.123 33.0469 91.3184C31.9727 91.5137 30.7845 91.6113 29.4824 91.6113L22.5977 90.6836C22.0768 90.8138 21.556 90.8952 21.0352 90.9277C20.5143 90.9928 19.9935 91.0254 19.4727 91.0254C18.8216 91.0254 18.1706 90.9928 17.5195 90.9277C16.901 90.8626 16.2663 90.7812 15.6152 90.6836C15.5176 90.1953 15.3548 89.7396 15.127 89.3164C14.9316 88.8607 14.7363 88.4049 14.541 87.9492C14.3457 87.4935 14.1667 87.0378 14.0039 86.582C13.8411 86.0938 13.7598 85.6055 13.7598 85.1172C13.7598 84.2708 13.9714 83.6686 14.3945 83.3105C14.8177 82.9199 15.3548 82.6595 16.0059 82.5293C16.6569 82.3665 17.3405 82.2526 18.0566 82.1875C18.8053 82.0898 19.5052 81.8945 20.1562 81.6016C20.8073 81.3086 21.3444 80.8529 21.7676 80.2344C22.1908 79.6159 22.4023 78.6882 22.4023 77.4512C22.4023 76.7025 22.3372 75.9538 22.207 75.2051C22.1094 74.4564 21.9792 73.7077 21.8164 72.959C21.6862 72.1777 21.556 71.4128 21.4258 70.6641C21.3281 69.9154 21.2793 69.1667 21.2793 68.418C21.2793 67.8646 21.3281 67.3275 21.4258 66.8066C21.5234 66.2533 21.5723 65.6999 21.5723 65.1465C21.5723 64.1374 21.4909 63.1445 21.3281 62.168C21.1979 61.1589 21.1328 60.1497 21.1328 59.1406C21.1328 57.9688 21.1979 56.8132 21.3281 55.6738C21.4583 54.502 21.5234 53.3301 21.5234 52.1582C21.5234 51.0514 21.4095 49.9772 21.1816 48.9355C20.9863 47.8613 20.8887 46.7546 20.8887 45.6152C20.8887 44.9967 20.9049 44.3783 20.9375 43.7598C20.9701 43.1413 20.9863 42.5228 20.9863 41.9043C20.9863 41.1882 20.9538 40.5046 20.8887 39.8535C20.8236 39.1699 20.6934 38.4863 20.498 37.8027C20.2702 36.9889 20.14 36.1914 20.1074 35.4102C20.0749 34.6289 19.9772 33.929 19.8145 33.3105C19.6517 32.6595 19.3424 32.1061 18.8867 31.6504C18.431 31.1621 17.666 30.804 16.5918 30.5762C16.2337 30.5111 15.957 30.4134 15.7617 30.2832C15.599 30.1204 15.4362 29.974 15.2734 29.8438C15.1107 29.681 14.8991 29.5345 14.6387 29.4043C14.4108 29.2741 14.0527 29.1764 13.5645 29.1113C12.1322 28.916 11.416 28.1185 11.416 26.7188C11.416 25.9375 11.5625 25.2539 11.8555 24.668C12.1484 24.0495 12.5228 23.4961 12.9785 23.0078C13.4342 22.5195 13.9388 22.0801 14.4922 21.6895C15.0781 21.2663 15.6478 20.8431 16.2012 20.4199C17.0475 19.7689 17.8451 19.3783 18.5938 19.248C19.3424 19.0853 20.14 19.0039 20.9863 19.0039H23.0859C24.0299 19.0039 24.9577 18.9714 25.8691 18.9062C26.8132 18.8086 27.7572 18.7598 28.7012 18.7598C29.2546 18.7598 29.8079 18.7923 30.3613 18.8574C30.9473 18.9225 31.5169 19.0365 32.0703 19.1992C32.3633 19.2969 32.64 19.4108 32.9004 19.541C33.1934 19.6387 33.4863 19.6875 33.7793 19.6875C34.235 19.6875 34.6257 19.5573 34.9512 19.2969C35.2767 19.0039 35.5697 18.8574 35.8301 18.8574C35.8952 18.8574 35.9277 18.89 35.9277 18.9551C35.9277 19.0202 35.9115 19.1016 35.8789 19.1992C35.8789 19.2643 35.8789 19.3294 35.8789 19.3945C35.8789 19.5898 36.0091 19.6875 36.2695 19.6875C36.4323 19.6875 36.5462 19.5898 36.6113 19.3945C36.709 19.1992 36.9043 19.069 37.1973 19.0039C37.4251 19.1016 37.6042 19.2155 37.7344 19.3457C37.8646 19.4434 37.9785 19.541 38.0762 19.6387C38.2064 19.7363 38.3529 19.8177 38.5156 19.8828C38.7109 19.9479 38.9551 19.9805 39.248 19.9805C39.9316 19.9805 40.6152 19.9316 41.2988 19.834C41.9824 19.7038 42.666 19.6387 43.3496 19.6387C44.2285 19.6387 45.0423 19.7852 45.791 20.0781C46.5397 20.3711 47.2396 20.7454 47.8906 21.2012C48.5742 21.6243 49.2253 22.1126 49.8438 22.666C50.4622 23.2194 51.0807 23.7565 51.6992 24.2773C52.1549 24.668 52.6107 24.9772 53.0664 25.2051C53.5547 25.4004 54.0104 25.612 54.4336 25.8398C54.8568 26.0352 55.2637 26.2956 55.6543 26.6211C56.0449 26.9141 56.3867 27.3698 56.6797 27.9883C57.0052 28.6719 57.3796 29.3392 57.8027 29.9902C58.2585 30.6087 58.6979 31.2272 59.1211 31.8457C59.5768 32.4316 60.0163 33.0501 60.4395 33.7012C60.8626 34.3197 61.237 34.987 61.5625 35.7031C62.3763 37.5586 62.946 39.5117 63.2715 41.5625C63.6296 43.5807 63.9876 45.5827 64.3457 47.5684C64.5085 48.4147 64.6875 49.2773 64.8828 50.1562C65.0781 51.0026 65.1758 51.849 65.1758 52.6953C65.1758 53.151 65.0944 53.5905 64.9316 54.0137C64.7689 54.4368 64.6875 54.8763 64.6875 55.332C64.6875 55.625 64.7363 55.8854 64.834 56.1133C64.9316 56.3411 65.0456 56.569 65.1758 56.7969C65.306 57.0247 65.4199 57.2852 65.5176 57.5781C65.6152 57.8711 65.6641 58.2129 65.6641 58.6035ZM57.5098 55.332C57.5098 54.0625 57.3307 52.8255 56.9727 51.6211C56.6146 50.4167 56.0612 49.2936 55.3125 48.252C55.6706 47.8939 55.8984 47.4707 55.9961 46.9824C56.0938 46.4941 56.1426 46.0221 56.1426 45.5664C56.1426 45.0781 56.11 44.5898 56.0449 44.1016C56.0124 43.6133 55.9961 43.1413 55.9961 42.6855C55.9961 42.4251 55.8984 42.1973 55.7031 42.002C55.5404 41.8066 55.3451 41.6276 55.1172 41.4648C54.9219 41.2695 54.7103 41.0905 54.4824 40.9277C54.2546 40.7324 54.0918 40.5046 53.9941 40.2441C53.8639 39.9186 53.7663 39.6419 53.7012 39.4141C53.6686 39.1536 53.6361 38.9095 53.6035 38.6816C53.571 38.4538 53.5059 38.2096 53.4082 37.9492C53.3105 37.6888 53.1478 37.3796 52.9199 37.0215C52.7572 36.7611 52.627 36.5169 52.5293 36.2891C52.4316 36.0286 52.3828 35.7194 52.3828 35.3613C52.3828 35.0358 52.4316 34.694 52.5293 34.3359C52.3991 34.0755 52.1875 33.8639 51.8945 33.7012C51.6016 33.5059 51.276 33.3594 50.918 33.2617C50.5273 33.1315 50.0879 33.0339 49.5996 32.9688C49.1113 32.9688 48.5905 32.8223 48.0371 32.5293C47.5163 32.2363 46.9629 31.9108 46.377 31.5527C45.791 31.1947 45.1888 30.8691 44.5703 30.5762C43.9844 30.2832 43.3822 30.1367 42.7637 30.1367C41.8197 30.1367 40.8919 30.2181 39.9805 30.3809C39.069 30.5436 38.1413 30.6901 37.1973 30.8203C36.4811 30.918 35.6999 30.9831 34.8535 31.0156C34.0072 31.0156 33.2096 31.097 32.4609 31.2598C31.7448 31.4225 31.1426 31.7318 30.6543 32.1875C30.166 32.6107 29.9219 33.2943 29.9219 34.2383C29.9219 35.3776 29.987 36.5332 30.1172 37.7051C30.2799 38.877 30.3613 40.0814 30.3613 41.3184C30.3613 43.89 30.2474 46.4616 30.0195 49.0332C29.8242 51.5723 29.7266 54.1439 29.7266 56.748C29.7266 57.9525 29.7917 59.1569 29.9219 60.3613C30.0521 61.5332 30.1172 62.7376 30.1172 63.9746C30.1172 65.5697 29.987 67.1484 29.7266 68.7109C29.4987 70.2734 29.3848 71.8522 29.3848 73.4473C29.3848 74.0983 29.3848 74.7982 29.3848 75.5469C29.3848 76.2956 29.4499 77.0117 29.5801 77.6953C29.7103 78.3789 29.9544 78.9974 30.3125 79.5508C30.6706 80.1042 31.2077 80.5111 31.9238 80.7715C32.9329 81.1296 33.9258 81.4876 34.9023 81.8457C35.9115 82.1712 36.9694 82.334 38.0762 82.334C38.7272 82.334 39.362 82.1875 39.9805 81.8945C40.599 81.569 41.2337 81.3086 41.8848 81.1133C42.3079 80.9831 42.7799 80.8691 43.3008 80.7715C43.8542 80.6413 44.3913 80.5111 44.9121 80.3809C45.4329 80.2181 45.9212 80.0228 46.377 79.7949C46.8652 79.5345 47.2721 79.2253 47.5977 78.8672C48.0859 78.3138 48.5579 77.8255 49.0137 77.4023C49.4694 76.9792 50.1042 76.6862 50.918 76.5234C51.3086 76.4583 51.5527 76.3281 51.6504 76.1328C51.7806 75.9049 51.862 75.6608 51.8945 75.4004C51.9596 75.1074 52.041 74.8145 52.1387 74.5215C52.2363 74.196 52.4479 73.9193 52.7734 73.6914C53.2943 73.3008 53.6849 72.8451 53.9453 72.3242C54.2383 71.8034 54.4499 71.25 54.5801 70.6641C54.7103 70.0781 54.8079 69.4922 54.873 68.9062C54.9707 68.2878 55.1009 67.6855 55.2637 67.0996C55.6217 65.7975 56.0286 64.4792 56.4844 63.1445C56.9727 61.8099 57.2168 60.459 57.2168 59.0918C57.2168 58.7337 57.1354 58.4245 56.9727 58.1641C56.8099 57.8711 56.7285 57.5456 56.7285 57.1875C56.7285 56.9922 56.7611 56.8783 56.8262 56.8457C56.9238 56.7806 57.0215 56.7155 57.1191 56.6504C57.2168 56.5527 57.2982 56.4225 57.3633 56.2598C57.4609 56.097 57.5098 55.7878 57.5098 55.332ZM126.65 54.3555C126.65 55.0065 126.52 55.5599 126.26 56.0156C125.999 56.4714 125.706 56.9108 125.381 57.334C125.088 57.7246 124.779 58.1315 124.453 58.5547C124.16 58.9779 123.965 59.4824 123.867 60.0684C123.574 59.9382 123.265 59.8568 122.939 59.8242C122.646 59.7917 122.337 59.7754 122.012 59.7754C121.23 59.7754 120.449 59.8405 119.668 59.9707C118.919 60.0684 118.171 60.1172 117.422 60.1172C116.543 60.1172 115.811 59.8568 115.225 59.3359C114.671 58.7826 114.215 58.1152 113.857 57.334C113.532 56.5527 113.304 55.7227 113.174 54.8438C113.044 53.9323 112.979 53.1185 112.979 52.4023C112.979 51.4909 113.125 50.5632 113.418 49.6191C113.158 49.5215 112.93 49.4727 112.734 49.4727C112.311 49.4727 112.002 49.6029 111.807 49.8633C111.644 50.1237 111.4 50.2539 111.074 50.2539C110.781 50.2539 110.521 50.1562 110.293 49.9609C110.065 49.7331 109.788 49.6191 109.463 49.6191C108.975 49.6191 108.356 49.7819 107.607 50.1074C106.891 50.4004 106.191 50.791 105.508 51.2793C104.824 51.7676 104.222 52.3047 103.701 52.8906C103.213 53.444 102.969 53.9811 102.969 54.502C102.285 54.5671 101.634 54.7624 101.016 55.0879C100.43 55.3809 99.86 55.7064 99.3066 56.0645C98.8835 56.3249 98.5254 56.7318 98.2324 57.2852C97.9395 57.8385 97.6628 58.4408 97.4023 59.0918C97.1745 59.7103 96.9303 60.3451 96.6699 60.9961C96.4421 61.6471 96.1654 62.1842 95.8398 62.6074C95.2865 63.3236 94.7982 64.056 94.375 64.8047C93.9844 65.5208 93.7891 66.3346 93.7891 67.2461C93.7891 68.3854 93.9681 69.541 94.3262 70.7129C94.6842 71.8848 94.8633 73.0729 94.8633 74.2773C94.8633 75.0586 94.7982 75.8398 94.668 76.6211C94.5703 77.4023 94.5215 78.1673 94.5215 78.916C94.5215 79.8275 94.6842 80.5599 95.0098 81.1133C95.3353 81.6667 95.7747 82.1061 96.3281 82.4316C96.8815 82.7246 97.5163 82.9199 98.2324 83.0176C98.9486 83.1152 99.681 83.1641 100.43 83.1641C101.243 83.1641 102.025 83.1478 102.773 83.1152C103.555 83.0501 104.271 83.0176 104.922 83.0176C105.15 83.278 105.28 83.5221 105.312 83.75C105.345 83.9779 105.329 84.222 105.264 84.4824C105.231 84.7103 105.166 84.9544 105.068 85.2148C105.003 85.4427 104.971 85.7194 104.971 86.0449C104.971 86.1751 105.003 86.3379 105.068 86.5332C105.557 86.5332 105.98 86.4193 106.338 86.1914C106.696 85.9635 106.956 85.6055 107.119 85.1172C107.347 85.1823 107.542 85.2799 107.705 85.4102C107.9 85.5404 107.998 85.7357 107.998 85.9961C107.998 86.1914 107.949 86.3867 107.852 86.582C107.754 86.7448 107.64 86.9076 107.51 87.0703C107.38 87.2331 107.266 87.4121 107.168 87.6074C107.07 87.7702 107.021 87.9655 107.021 88.1934C107.021 88.3236 107.038 88.4701 107.07 88.6328C107.103 88.763 107.152 88.877 107.217 88.9746C107.054 89.235 106.826 89.4141 106.533 89.5117C106.24 89.6094 105.947 89.6582 105.654 89.6582C105.133 89.6582 104.694 89.5768 104.336 89.4141C104.01 89.2513 103.701 89.0723 103.408 88.877C103.148 88.6816 102.904 88.5026 102.676 88.3398C102.448 88.1771 102.171 88.0957 101.846 88.0957C101.715 88.0957 101.52 88.1283 101.26 88.1934C100.999 88.2585 100.739 88.3398 100.479 88.4375C100.218 88.5352 99.9902 88.6654 99.7949 88.8281C99.5996 88.9583 99.502 89.0885 99.502 89.2188C99.502 89.4792 99.5833 89.707 99.7461 89.9023C99.9414 90.0977 100.039 90.3255 100.039 90.5859C100.039 90.8138 99.9577 90.9928 99.7949 91.123C99.6322 91.2533 99.4368 91.3346 99.209 91.3672C98.9811 91.4323 98.737 91.4648 98.4766 91.4648C98.2487 91.4974 98.0534 91.5137 97.8906 91.5137C96.6211 91.5137 95.3516 91.3672 94.082 91.0742C92.8451 90.8138 91.5918 90.6836 90.3223 90.6836C89.7363 90.6836 89.1504 90.8138 88.5645 91.0742C87.9785 91.3346 87.36 91.4648 86.709 91.4648C86.3509 91.4648 86.0742 91.3835 85.8789 91.2207C85.7161 91.0905 85.5697 90.9277 85.4395 90.7324C85.3092 90.5371 85.1628 90.3581 85 90.1953C84.8372 90.0651 84.5931 90 84.2676 90C83.6491 90 83.0306 90.0651 82.4121 90.1953C81.8262 90.3255 81.224 90.4557 80.6055 90.5859C80.0195 90.7487 79.4173 90.8789 78.7988 90.9766C78.2129 91.1068 77.6107 91.1719 76.9922 91.1719C76.6667 91.1719 76.276 91.123 75.8203 91.0254C75.3646 90.9603 74.9251 90.8301 74.502 90.6348C74.0788 90.4395 73.7207 90.1953 73.4277 89.9023C73.1348 89.6094 72.9883 89.2513 72.9883 88.8281C72.9883 88.5677 73.1348 88.2259 73.4277 87.8027C73.7533 87.3796 74.1113 86.9727 74.502 86.582C74.8926 86.1589 75.2832 85.8008 75.6738 85.5078C76.0645 85.2148 76.3574 85.0684 76.5527 85.0684C77.0736 85.0684 77.5781 85.0846 78.0664 85.1172C78.5872 85.1497 79.1243 85.166 79.6777 85.166C80.5566 85.166 81.4355 85.0358 82.3145 84.7754C83.2259 84.4824 84.0397 84.0755 84.7559 83.5547C85.5046 83.0339 86.1068 82.3828 86.5625 81.6016C87.0182 80.8203 87.2461 79.9414 87.2461 78.9648C87.2461 78.5417 87.2135 78.1348 87.1484 77.7441C87.0833 77.321 87.0508 76.8978 87.0508 76.4746C87.0508 75.6283 87.1484 74.7819 87.3438 73.9355C87.5391 73.0892 87.6367 72.2428 87.6367 71.3965C87.6367 70.2572 87.5065 69.1016 87.2461 67.9297C87.0182 66.7253 86.9043 65.5208 86.9043 64.3164C86.9043 63.2422 86.9206 62.1842 86.9531 61.1426C87.0182 60.0684 87.0508 58.9941 87.0508 57.9199C87.0508 57.4316 87.0345 56.7155 87.002 55.7715C86.9694 54.8275 86.8555 53.8835 86.6602 52.9395C86.4974 51.9954 86.2207 51.1654 85.8301 50.4492C85.472 49.7331 84.9674 49.375 84.3164 49.375C83.6003 49.375 82.8841 49.4564 82.168 49.6191C81.4518 49.7819 80.7194 49.8633 79.9707 49.8633C79.4173 49.8633 78.7663 49.8307 78.0176 49.7656C77.2689 49.668 76.5527 49.5052 75.8691 49.2773C75.1855 49.0169 74.5996 48.6589 74.1113 48.2031C73.623 47.7474 73.3789 47.1452 73.3789 46.3965C73.3789 45.5827 73.4928 44.9316 73.7207 44.4434C73.9486 43.9225 74.2415 43.5319 74.5996 43.2715C74.9902 43.0111 75.4297 42.832 75.918 42.7344C76.4388 42.6367 76.9922 42.5879 77.5781 42.5879C78.099 42.5879 78.6361 42.6042 79.1895 42.6367C79.7428 42.6693 80.2799 42.6855 80.8008 42.6855C81.8424 42.6855 82.8678 42.6367 83.877 42.5391C84.9186 42.4089 85.9603 42.3438 87.002 42.3438C87.7181 42.3438 88.4342 42.3763 89.1504 42.4414C89.8665 42.5065 90.5664 42.653 91.25 42.8809C91.8685 43.0762 92.3242 43.4505 92.6172 44.0039C92.9102 44.5247 93.1706 45.0618 93.3984 45.6152C93.6589 46.1686 93.9518 46.6732 94.2773 47.1289C94.6029 47.5521 95.1237 47.7637 95.8398 47.7637C96.1654 47.7637 96.4583 47.6823 96.7188 47.5195C97.0117 47.3242 97.2884 47.1126 97.5488 46.8848C97.8092 46.6569 98.0697 46.4453 98.3301 46.25C98.5905 46.0547 98.8997 45.9245 99.2578 45.8594C99.974 45.7617 100.625 45.5339 101.211 45.1758C101.829 44.8177 102.432 44.4596 103.018 44.1016C103.604 43.7435 104.189 43.418 104.775 43.125C105.394 42.832 106.061 42.6855 106.777 42.6855C107.201 42.6855 107.721 42.6367 108.34 42.5391C108.991 42.4414 109.626 42.3112 110.244 42.1484C110.895 41.9531 111.497 41.7253 112.051 41.4648C112.637 41.2044 113.092 40.9115 113.418 40.5859C114.297 40.651 115.322 40.8626 116.494 41.2207C117.699 41.5788 118.838 42.0671 119.912 42.6855C121.019 43.2715 121.979 43.9714 122.793 44.7852C123.607 45.599 124.079 46.5104 124.209 47.5195C124.307 48.138 124.486 48.724 124.746 49.2773C125.007 49.8307 125.267 50.3841 125.527 50.9375C125.82 51.4583 126.081 52.0117 126.309 52.5977C126.536 53.151 126.65 53.737 126.65 54.3555ZM187.588 45.4688C187.588 45.8594 187.49 46.2826 187.295 46.7383C187.1 47.1615 186.839 47.5684 186.514 47.959C186.221 48.3171 185.879 48.6426 185.488 48.9355C185.098 49.2285 184.723 49.4401 184.365 49.5703C183.779 49.7656 183.047 49.8958 182.168 49.9609C181.322 50.026 180.492 50.14 179.678 50.3027C178.896 50.4655 178.213 50.7585 177.627 51.1816C177.074 51.5723 176.797 52.207 176.797 53.0859C176.797 53.6068 176.764 53.9486 176.699 54.1113C176.634 54.2415 176.471 54.3066 176.211 54.3066C176.146 54.3066 176.048 54.3066 175.918 54.3066C175.82 54.2741 175.706 54.2578 175.576 54.2578L175.137 54.502C174.681 55.6087 174.404 56.7643 174.307 57.9688C174.242 59.1732 174.046 60.3451 173.721 61.4844C173.102 61.5169 172.598 61.8099 172.207 62.3633C171.849 62.9167 171.556 63.5677 171.328 64.3164C171.133 65.0326 170.954 65.765 170.791 66.5137C170.661 67.2624 170.514 67.8483 170.352 68.2715C169.342 70.7129 168.301 73.1055 167.227 75.4492C166.185 77.793 165.062 80.1367 163.857 82.4805C163.76 82.6758 163.646 83.0013 163.516 83.457C163.385 83.8802 163.239 84.3197 163.076 84.7754C162.913 85.1986 162.718 85.5729 162.49 85.8984C162.295 86.224 162.051 86.3867 161.758 86.3867C161.367 86.224 160.993 86.0286 160.635 85.8008C160.277 85.5404 159.902 85.3939 159.512 85.3613C159.382 85.3939 159.316 85.4753 159.316 85.6055C159.316 85.9635 159.479 86.2565 159.805 86.4844C160.163 86.7122 160.537 86.9401 160.928 87.168C161.351 87.3958 161.725 87.6237 162.051 87.8516C162.409 88.0794 162.588 88.3561 162.588 88.6816C162.588 88.9746 162.474 89.2839 162.246 89.6094C162.051 89.9349 161.823 90.2767 161.562 90.6348C161.302 91.0254 161.058 91.4323 160.83 91.8555C160.602 92.2786 160.472 92.7507 160.439 93.2715C160.374 93.9225 160.179 94.5085 159.854 95.0293C159.561 95.5501 159.219 96.0547 158.828 96.543C158.47 97.0638 158.128 97.6009 157.803 98.1543C157.51 98.7402 157.314 99.3913 157.217 100.107C157.152 100.661 157.021 101.214 156.826 101.768C156.663 102.354 156.436 102.891 156.143 103.379C155.85 103.867 155.492 104.29 155.068 104.648C154.645 105.007 154.141 105.234 153.555 105.332C153.392 106.309 152.985 107.269 152.334 108.213C151.715 109.157 150.951 109.987 150.039 110.703C149.128 111.452 148.151 112.038 147.109 112.461C146.068 112.917 145.042 113.145 144.033 113.145C143.219 113.145 142.422 113.031 141.641 112.803C140.892 112.575 140.16 112.282 139.443 111.924C138.955 111.696 138.564 111.566 138.271 111.533C137.979 111.501 137.718 111.468 137.49 111.436C137.295 111.403 137.067 111.305 136.807 111.143C136.579 110.98 136.27 110.654 135.879 110.166C135.293 109.385 134.658 108.652 133.975 107.969C133.324 107.318 132.656 106.667 131.973 106.016C131.615 105.69 131.354 105.299 131.191 104.844C131.029 104.388 130.882 103.932 130.752 103.477C130.622 103.021 130.443 102.581 130.215 102.158C130.02 101.735 129.678 101.393 129.189 101.133C129.027 100.97 128.945 100.677 128.945 100.254C128.945 99.9609 129.059 99.3587 129.287 98.4473C129.515 97.5358 129.808 96.5918 130.166 95.6152C130.524 94.6712 130.915 93.8086 131.338 93.0273C131.794 92.2786 132.217 91.9043 132.607 91.9043C132.868 91.9043 133.112 91.9368 133.34 92.002C133.568 92.0996 133.812 92.1484 134.072 92.1484C134.723 92.1484 135.358 91.9857 135.977 91.6602C136.595 91.3346 137.246 91.1719 137.93 91.1719C138.353 91.1719 138.662 91.2858 138.857 91.5137C139.085 91.7415 139.248 92.002 139.346 92.2949C139.443 92.5879 139.525 92.8483 139.59 93.0762C139.688 93.304 139.85 93.418 140.078 93.418C140.241 93.3854 140.387 93.3366 140.518 93.2715C140.843 93.1413 141.104 93.0762 141.299 93.0762C141.722 93.0762 142.113 93.1738 142.471 93.3691C142.829 93.597 143.154 93.8737 143.447 94.1992C143.74 94.5247 144.001 94.8665 144.229 95.2246C144.489 95.6152 144.717 95.9733 144.912 96.2988C145.01 96.4616 145.156 96.6243 145.352 96.7871C145.547 96.9824 145.742 97.1777 145.938 97.373C146.133 97.5684 146.296 97.7474 146.426 97.9102C146.556 98.1055 146.621 98.3008 146.621 98.4961C146.621 98.8542 146.523 99.1797 146.328 99.4727C146.165 99.7656 146.084 100.059 146.084 100.352C146.084 100.677 146.214 100.905 146.475 101.035C146.768 101.165 147.044 101.23 147.305 101.23C147.923 101.23 148.525 100.97 149.111 100.449C149.73 99.9609 150.316 99.3099 150.869 98.4961C151.423 97.6823 151.927 96.7708 152.383 95.7617C152.871 94.7852 153.294 93.7923 153.652 92.7832C154.01 91.8066 154.287 90.8789 154.482 90C154.678 89.1536 154.775 88.4701 154.775 87.9492C154.775 87.3958 154.645 86.6309 154.385 85.6543C154.124 84.6777 153.783 83.6035 153.359 82.4316C152.936 81.2598 152.464 80.0228 151.943 78.7207C151.423 77.4186 150.902 76.1654 150.381 74.9609C149.893 73.7565 149.437 72.6497 149.014 71.6406C148.59 70.599 148.249 69.7526 147.988 69.1016C147.467 67.8646 146.995 66.5951 146.572 65.293C146.182 63.9909 145.726 62.7214 145.205 61.4844C144.912 60.8008 144.489 60.0195 143.936 59.1406C143.415 58.2292 142.878 57.3014 142.324 56.3574C141.803 55.3809 141.331 54.4368 140.908 53.5254C140.518 52.5814 140.322 51.7513 140.322 51.0352C140.062 51.0352 139.769 50.9863 139.443 50.8887C139.15 50.7585 138.857 50.6283 138.564 50.498C138.271 50.3353 137.979 50.2051 137.686 50.1074C137.425 49.9772 137.181 49.9121 136.953 49.9121C136.27 49.9121 135.57 50.0098 134.854 50.2051C134.137 50.3678 133.421 50.4492 132.705 50.4492C132.314 50.4492 131.859 50.4167 131.338 50.3516C130.817 50.2539 130.312 50.1237 129.824 49.9609C129.368 49.7656 128.962 49.5052 128.604 49.1797C128.278 48.8542 128.115 48.4473 128.115 47.959C128.115 47.6009 128.164 47.194 128.262 46.7383C128.359 46.2826 128.49 45.8594 128.652 45.4688C128.848 45.0456 129.076 44.7038 129.336 44.4434C129.596 44.1504 129.889 44.0039 130.215 44.0039C130.703 44.0039 131.175 44.1667 131.631 44.4922C132.087 44.7852 132.575 44.9316 133.096 44.9316C133.844 44.9316 134.577 44.8991 135.293 44.834C136.042 44.7689 136.79 44.7363 137.539 44.7363C138.19 44.7363 138.825 44.5573 139.443 44.1992C140.094 43.8411 140.697 43.5156 141.25 43.2227C141.868 42.8971 142.747 42.7018 143.887 42.6367C145.059 42.5391 146.23 42.4902 147.402 42.4902C147.826 42.4902 148.493 42.474 149.404 42.4414C150.316 42.3763 151.227 42.4089 152.139 42.5391C153.083 42.6693 153.896 42.9622 154.58 43.418C155.296 43.8411 155.654 44.5247 155.654 45.4688C155.654 46.2826 155.475 46.9661 155.117 47.5195C154.792 48.0404 154.368 48.4961 153.848 48.8867C153.359 49.2773 152.806 49.6354 152.188 49.9609C151.602 50.2539 151.048 50.5794 150.527 50.9375C150.039 51.263 149.616 51.6536 149.258 52.1094C148.932 52.5651 148.77 53.1348 148.77 53.8184C148.77 54.8926 149.079 56.0482 149.697 57.2852C150.316 58.4896 150.999 59.694 151.748 60.8984C152.497 62.0703 153.197 63.1934 153.848 64.2676C154.499 65.3418 154.873 66.2695 154.971 67.0508C155.003 67.474 155.117 68.0762 155.312 68.8574C155.508 69.6387 155.768 70.4199 156.094 71.2012C156.452 71.9499 156.859 72.6172 157.314 73.2031C157.803 73.7565 158.324 74.0332 158.877 74.0332C159.268 74.0332 159.609 73.8704 159.902 73.5449C160.195 73.2194 160.456 72.8288 160.684 72.373C160.911 71.9173 161.09 71.4616 161.221 71.0059C161.383 70.5176 161.514 70.127 161.611 69.834C161.904 68.9225 162.165 68.0111 162.393 67.0996C162.653 66.1882 163.06 65.3418 163.613 64.5605C164.069 63.9746 164.427 63.3724 164.688 62.7539C164.948 62.1029 165.225 61.4355 165.518 60.752C165.843 59.9382 166.169 59.3034 166.494 58.8477C166.852 58.3919 167.161 57.9362 167.422 57.4805C167.682 57.0247 167.894 56.4714 168.057 55.8203C168.252 55.1693 168.35 54.2253 168.35 52.9883C168.35 52.2396 168.187 51.6862 167.861 51.3281C167.536 50.9701 167.129 50.6934 166.641 50.498C166.185 50.3027 165.68 50.14 165.127 50.0098C164.574 49.8796 164.053 49.6842 163.564 49.4238C163.109 49.1309 162.718 48.7077 162.393 48.1543C162.067 47.6009 161.904 46.8197 161.904 45.8105C161.904 44.9642 162.165 44.2969 162.686 43.8086C163.206 43.2878 163.841 42.9134 164.59 42.6855C165.371 42.4251 166.217 42.2624 167.129 42.1973C168.04 42.1322 168.887 42.0996 169.668 42.0996H171.377C172.809 42.0996 174.209 42.002 175.576 41.8066C176.976 41.6113 178.376 41.5137 179.775 41.5137C180.199 41.5137 180.817 41.6276 181.631 41.8555C182.445 42.0833 183.258 42.3438 184.072 42.6367C184.886 42.9297 185.57 43.2227 186.123 43.5156C186.709 43.776 186.986 43.9551 186.953 44.0527C186.953 44.0202 187.051 44.1504 187.246 44.4434C187.474 44.7363 187.588 45.0781 187.588 45.4688ZM147.305 102.549L146.572 102.5H146.279C145.726 102.5 145.286 102.63 144.961 102.891C144.635 103.184 144.473 103.623 144.473 104.209L144.521 104.6C144.814 104.535 145.124 104.469 145.449 104.404C145.775 104.372 146.068 104.307 146.328 104.209C146.621 104.111 146.849 103.965 147.012 103.77C147.207 103.574 147.305 103.298 147.305 102.939V102.744V102.549ZM242.861 69.7852C242.861 70.013 242.861 70.3223 242.861 70.7129C242.894 71.071 242.894 71.4453 242.861 71.8359C242.861 72.194 242.829 72.5358 242.764 72.8613C242.731 73.1543 242.65 73.3659 242.52 73.4961C242.227 73.7891 241.917 73.9844 241.592 74.082C241.266 74.1471 240.924 74.196 240.566 74.2285C240.241 74.2285 239.899 74.2611 239.541 74.3262C239.215 74.3587 238.89 74.4727 238.564 74.668C238.63 74.9935 238.776 75.2051 239.004 75.3027C239.264 75.3678 239.525 75.4329 239.785 75.498C240.078 75.5306 240.322 75.6283 240.518 75.791C240.745 75.9212 240.859 76.1979 240.859 76.6211C240.859 77.3047 240.745 77.8743 240.518 78.3301C240.322 78.7533 240.078 79.1439 239.785 79.502C239.492 79.8275 239.199 80.1693 238.906 80.5273C238.613 80.8854 238.385 81.3411 238.223 81.8945C238.027 82.4805 237.783 82.9036 237.49 83.1641C237.197 83.4245 236.872 83.6361 236.514 83.7988C236.188 83.929 235.846 84.0755 235.488 84.2383C235.13 84.401 234.788 84.694 234.463 85.1172C234.105 85.5078 233.812 85.7031 233.584 85.7031C233.486 85.7031 233.372 85.6868 233.242 85.6543C233.112 85.6217 232.949 85.6055 232.754 85.6055C232.591 85.6055 232.428 85.6706 232.266 85.8008C232.135 85.8984 232.07 86.0286 232.07 86.1914C232.07 86.2565 232.103 86.2891 232.168 86.2891C232.233 86.2891 232.249 86.3053 232.217 86.3379C231.826 86.696 231.126 87.1191 230.117 87.6074C229.108 88.0632 227.952 88.5026 226.65 88.9258C225.348 89.3164 223.981 89.6582 222.549 89.9512C221.149 90.2116 219.814 90.3418 218.545 90.3418C216.331 90.3418 214.134 90.2767 211.953 90.1465C209.805 90.0488 207.607 90 205.361 90H198.867C198.77 90 198.623 90.0977 198.428 90.293C198.265 90.4883 198.07 90.5859 197.842 90.5859C197.484 90.5859 197.012 90.5371 196.426 90.4395C195.872 90.3418 195.319 90.179 194.766 89.9512C194.212 89.7233 193.724 89.4466 193.301 89.1211C192.91 88.763 192.715 88.3561 192.715 87.9004C192.715 87.7376 192.731 87.6074 192.764 87.5098C192.796 87.3796 192.829 87.2331 192.861 87.0703C193.154 86.1589 193.561 85.4753 194.082 85.0195C194.603 84.5312 195.156 84.1243 195.742 83.7988C196.361 83.4408 196.979 83.0827 197.598 82.7246C198.249 82.3665 198.818 81.862 199.307 81.2109C199.827 80.5599 200.251 79.681 200.576 78.5742C200.902 77.4674 201.064 75.9863 201.064 74.1309C201.064 72.4382 200.951 70.7617 200.723 69.1016C200.527 67.4414 200.43 65.765 200.43 64.0723C200.462 60.9473 200.527 57.8548 200.625 54.7949C200.755 51.735 200.837 48.6426 200.869 45.5176L200.918 37.8516C200.918 37.0378 200.885 36.0938 200.82 35.0195C200.788 33.9453 200.625 32.9199 200.332 31.9434C200.072 30.9342 199.632 30.0879 199.014 29.4043C198.428 28.6882 197.581 28.2812 196.475 28.1836C195.921 28.151 195.286 28.0046 194.57 27.7441C193.854 27.4837 193.171 27.1419 192.52 26.7188C191.901 26.263 191.364 25.7585 190.908 25.2051C190.452 24.6517 190.225 24.0495 190.225 23.3984C190.225 22.8451 190.387 22.3893 190.713 22.0312C191.038 21.6406 191.429 21.3314 191.885 21.1035C192.34 20.8431 192.829 20.6641 193.35 20.5664C193.903 20.4362 194.408 20.3711 194.863 20.3711C195.905 20.3711 196.93 20.485 197.939 20.7129C198.949 20.9082 199.99 21.0059 201.064 21.0059C202.399 21.0059 203.734 20.9408 205.068 20.8105C206.436 20.6803 207.786 20.5339 209.121 20.3711C210.456 20.1758 211.79 20.013 213.125 19.8828C214.492 19.7526 215.859 19.6875 217.227 19.6875C218.366 19.6875 219.505 19.7363 220.645 19.834C221.784 19.8991 222.923 19.9642 224.062 20.0293C224.258 20.2897 224.6 20.5013 225.088 20.6641C225.576 20.8268 226.097 20.9733 226.65 21.1035C227.236 21.2337 227.806 21.3477 228.359 21.4453C228.913 21.5104 229.336 21.5755 229.629 21.6406C230.41 21.8034 231.077 21.9824 231.631 22.1777C232.217 22.3405 232.705 22.5846 233.096 22.9102C233.519 23.2031 233.877 23.5938 234.17 24.082C234.495 24.5703 234.788 25.2051 235.049 25.9863C235.081 26.084 235.228 26.2305 235.488 26.4258C235.781 26.6211 236.107 26.8164 236.465 27.0117C236.823 27.207 237.165 27.4023 237.49 27.5977C237.816 27.793 238.044 27.9557 238.174 28.0859C238.597 28.5091 239.02 29.1602 239.443 30.0391C239.899 30.8854 240.306 31.7969 240.664 32.7734C241.022 33.75 241.315 34.7103 241.543 35.6543C241.771 36.5983 241.885 37.3633 241.885 37.9492C241.885 39.1536 241.706 40.3581 241.348 41.5625C241.022 42.7669 240.68 43.9388 240.322 45.0781C240.094 45.7617 239.753 46.4128 239.297 47.0312C238.874 47.6497 238.451 48.2845 238.027 48.9355C237.604 49.554 237.23 50.1888 236.904 50.8398C236.611 51.4909 236.465 52.1745 236.465 52.8906C236.465 53.8997 236.676 54.9089 237.1 55.918C237.523 56.9271 238.011 57.8548 238.564 58.7012C238.792 59.0918 239.053 59.4661 239.346 59.8242C239.671 60.1823 239.98 60.5404 240.273 60.8984C240.599 61.224 240.892 61.582 241.152 61.9727C241.413 62.3307 241.641 62.7376 241.836 63.1934C242.259 64.235 242.536 65.3255 242.666 66.4648C242.796 67.5716 242.861 68.6784 242.861 69.7852ZM233.633 39.9512C233.633 39.5931 233.584 39.1699 233.486 38.6816C233.389 38.1934 233.275 37.7051 233.145 37.2168C233.014 36.696 232.884 36.1914 232.754 35.7031C232.624 35.1823 232.526 34.7266 232.461 34.3359C232.363 33.8477 232.217 33.457 232.021 33.1641C231.826 32.8385 231.598 32.5781 231.338 32.3828C231.077 32.1549 230.785 31.9434 230.459 31.748C230.133 31.5202 229.808 31.2598 229.482 30.9668C228.669 30.2507 227.887 29.681 227.139 29.2578C226.39 28.8346 225.609 28.5091 224.795 28.2812C223.981 28.0534 223.118 27.9069 222.207 27.8418C221.296 27.7441 220.286 27.6953 219.18 27.6953C218.464 27.6953 217.715 27.7116 216.934 27.7441C216.185 27.7767 215.501 27.8743 214.883 28.0371C214.753 28.1022 214.671 28.1836 214.639 28.2812C214.606 28.3789 214.525 28.4766 214.395 28.5742C214.297 28.6719 214.102 28.7695 213.809 28.8672C213.516 28.9323 213.06 28.9648 212.441 28.9648C211.497 28.9648 210.716 29.0951 210.098 29.3555C209.512 29.6159 209.04 29.9902 208.682 30.4785C208.356 30.9342 208.128 31.5039 207.998 32.1875C207.868 32.8385 207.786 33.5872 207.754 34.4336C207.721 35.5078 207.689 36.6146 207.656 37.7539C207.656 38.8932 207.607 40.0326 207.51 41.1719C207.412 42.2786 207.233 43.3691 206.973 44.4434C206.745 45.5176 206.37 46.5592 205.85 47.5684C207.673 48.0241 209.528 48.3822 211.416 48.6426C213.304 48.903 215.16 49.0332 216.982 49.0332C218.252 49.0332 219.521 48.9844 220.791 48.8867C222.093 48.7891 223.363 48.6263 224.6 48.3984C225.055 48.3008 225.658 48.1217 226.406 47.8613C227.188 47.6009 227.936 47.2754 228.652 46.8848C229.401 46.4941 230.052 46.0547 230.605 45.5664C231.191 45.0781 231.517 44.5736 231.582 44.0527C231.647 43.6621 231.777 43.304 231.973 42.9785C232.201 42.653 232.428 42.3438 232.656 42.0508C232.917 41.7253 233.145 41.3997 233.34 41.0742C233.535 40.7487 233.633 40.3743 233.633 39.9512ZM235.244 72.5684C235.244 71.722 235.13 70.8757 234.902 70.0293C234.707 69.1829 234.544 68.3366 234.414 67.4902C234.316 66.709 234.219 66.0905 234.121 65.6348C234.056 65.179 233.926 64.7884 233.73 64.4629C233.568 64.1048 233.324 63.763 232.998 63.4375C232.673 63.112 232.201 62.6888 231.582 62.168C231.419 61.4518 231.24 61.0286 231.045 60.8984C230.882 60.7682 230.703 60.7031 230.508 60.7031C230.345 60.7031 230.166 60.7194 229.971 60.752C229.808 60.752 229.645 60.752 229.482 60.752L228.799 59.3848C228.18 58.9616 227.627 58.6361 227.139 58.4082C226.683 58.1803 226.081 58.0339 225.332 57.9688C224.681 57.9036 224.03 57.7734 223.379 57.5781C222.76 57.3828 222.109 57.2852 221.426 57.2852C221.133 57.2852 220.905 57.3991 220.742 57.627C220.579 57.8548 220.449 57.9688 220.352 57.9688C220.156 57.9688 219.928 57.9362 219.668 57.8711C219.408 57.7734 219.131 57.6921 218.838 57.627C218.545 57.5293 218.236 57.4479 217.91 57.3828C217.617 57.2852 217.34 57.2363 217.08 57.2363C215.615 57.2363 214.183 57.3991 212.783 57.7246C211.416 58.0176 210.033 58.3431 208.633 58.7012C208.372 59.3848 208.112 60.1335 207.852 60.9473C207.624 61.7611 207.412 62.5911 207.217 63.4375C207.021 64.2839 206.859 65.1302 206.729 65.9766C206.598 66.7904 206.533 67.5553 206.533 68.2715C206.533 68.6296 206.566 68.9225 206.631 69.1504C206.696 69.3457 206.777 69.5247 206.875 69.6875C206.973 69.8503 207.054 70.013 207.119 70.1758C207.184 70.3385 207.217 70.5339 207.217 70.7617C207.217 72.0638 207.07 73.3496 206.777 74.6191C206.517 75.8561 206.387 77.1257 206.387 78.4277C206.387 79.2741 206.501 80.0879 206.729 80.8691C206.956 81.6504 207.347 82.3665 207.9 83.0176C208.551 83.0176 209.17 83.1478 209.756 83.4082C210.342 83.6361 210.96 83.75 211.611 83.75C212.067 83.75 212.507 83.6361 212.93 83.4082C213.385 83.1803 213.743 83.0664 214.004 83.0664C214.264 83.0664 214.46 83.1803 214.59 83.4082C214.753 83.6361 215.013 83.75 215.371 83.75H215.566C215.664 83.5872 215.843 83.457 216.104 83.3594C216.364 83.2292 216.657 83.1478 216.982 83.1152C217.34 83.0501 217.715 83.0176 218.105 83.0176C218.496 82.985 218.87 82.9688 219.229 82.9688C219.912 82.9688 220.433 82.985 220.791 83.0176C221.182 83.0501 221.621 83.0664 222.109 83.0664C223.477 82.7734 224.779 82.4154 226.016 81.9922C227.057 81.6341 228.115 81.1784 229.189 80.625C230.296 80.0716 231.159 79.4206 231.777 78.6719C232.103 78.3464 232.461 77.9395 232.852 77.4512C233.275 76.9629 233.649 76.4583 233.975 75.9375C234.333 75.3841 234.626 74.8307 234.854 74.2773C235.114 73.6914 235.244 73.1217 235.244 72.5684Z" fill="white"/>
<path d="M303.799 81.4551C303.799 82.0085 303.701 82.5293 303.506 83.0176C303.311 83.5059 303.132 84.0104 302.969 84.5312C302.839 84.987 302.741 85.3613 302.676 85.6543C302.643 85.9473 302.578 86.2077 302.48 86.4355C302.383 86.6309 302.22 86.8262 301.992 87.0215C301.797 87.1842 301.471 87.3796 301.016 87.6074C300.039 88.1283 298.997 88.6654 297.891 89.2188C296.816 89.7396 295.726 90 294.619 90C293.675 90 292.78 89.7884 291.934 89.3652C291.12 88.9095 290.355 88.4212 289.639 87.9004C288.955 87.347 288.32 86.8424 287.734 86.3867C287.181 85.931 286.709 85.7031 286.318 85.7031C285.895 85.7031 285.521 85.8171 285.195 86.0449C284.902 86.2728 284.593 86.5169 284.268 86.7773C283.975 87.0378 283.633 87.2819 283.242 87.5098C282.884 87.7376 282.428 87.8516 281.875 87.8516C281.419 87.8516 280.947 87.9329 280.459 88.0957C279.971 88.2585 279.482 88.4538 278.994 88.6816C278.506 88.877 278.001 89.0885 277.48 89.3164C276.992 89.5117 276.536 89.6745 276.113 89.8047C274.648 90.1953 273.167 90.4232 271.67 90.4883C270.205 90.5534 268.724 90.5859 267.227 90.5859C266.836 90.5859 266.234 90.5697 265.42 90.5371C264.606 90.5371 263.776 90.4557 262.93 90.293C262.116 90.1628 261.383 89.9349 260.732 89.6094C260.114 89.2839 259.805 88.8281 259.805 88.2422C259.805 88.112 259.821 87.998 259.854 87.9004C259.626 88.1608 259.365 88.3724 259.072 88.5352C258.779 88.6979 258.454 88.7793 258.096 88.7793C257.575 88.7793 256.94 88.4212 256.191 87.7051C255.443 86.9889 254.727 86.1589 254.043 85.2148C253.359 84.2708 252.773 83.3431 252.285 82.4316C251.797 81.4876 251.553 80.7878 251.553 80.332C251.553 79.974 251.65 79.6484 251.846 79.3555C252.074 79.0625 252.188 78.737 252.188 78.3789C252.188 77.9232 252.122 77.5 251.992 77.1094C251.895 76.6862 251.846 76.2467 251.846 75.791C251.846 75.2051 251.96 74.5866 252.188 73.9355C252.415 73.252 252.692 72.5846 253.018 71.9336C253.343 71.25 253.685 70.599 254.043 69.9805C254.401 69.3294 254.727 68.7272 255.02 68.1738C255.345 67.5228 255.801 67.002 256.387 66.6113C256.973 66.2207 257.591 65.8789 258.242 65.5859C258.893 65.293 259.544 65 260.195 64.707C260.846 64.4141 261.416 64.0234 261.904 63.5352C262.393 64.0885 263.027 64.3652 263.809 64.3652C264.622 64.3652 265.42 64.2513 266.201 64.0234C266.982 63.763 267.78 63.6328 268.594 63.6328C269.245 63.6328 269.863 63.6979 270.449 63.8281C271.068 63.9583 271.702 64.0234 272.354 64.0234C273.07 64.0234 273.59 63.9421 273.916 63.7793C274.274 63.584 274.714 63.2585 275.234 62.8027C275.755 62.347 276.406 62.0052 277.188 61.7773C278.001 61.5169 278.831 61.3216 279.678 61.1914C280.557 61.0286 281.419 60.8659 282.266 60.7031C283.145 60.5404 283.926 60.3125 284.609 60.0195C285.293 59.694 285.846 59.2708 286.27 58.75C286.693 58.1966 286.904 57.4479 286.904 56.5039C286.904 55.4622 286.595 54.3717 285.977 53.2324C285.391 52.0605 284.626 51.0026 283.682 50.0586C282.738 49.082 281.696 48.2845 280.557 47.666C279.417 47.0475 278.327 46.7383 277.285 46.7383C277.155 46.7383 277.025 46.7546 276.895 46.7871C276.764 46.8197 276.65 46.8359 276.553 46.8359C275.771 46.9661 274.893 47.0638 273.916 47.1289C272.939 47.1615 272.028 47.3079 271.182 47.5684C270.335 47.7962 269.619 48.2031 269.033 48.7891C268.447 49.3424 268.154 50.1725 268.154 51.2793C268.154 51.9303 268.203 52.5814 268.301 53.2324C268.431 53.8509 268.496 54.4857 268.496 55.1367C268.496 56.1133 268.252 56.9271 267.764 57.5781C267.308 58.2292 266.706 58.75 265.957 59.1406C265.241 59.5312 264.443 59.8079 263.564 59.9707C262.686 60.1009 261.839 60.166 261.025 60.166C260.049 60.166 259.202 60.0358 258.486 59.7754C257.77 59.515 257.184 58.9128 256.729 57.9688C256.37 57.2852 255.98 56.5527 255.557 55.7715C255.166 54.9577 254.971 54.1439 254.971 53.3301C254.971 52.4512 255.117 51.6374 255.41 50.8887C255.736 50.1074 256.094 49.3587 256.484 48.6426C256.875 47.8939 257.249 47.1615 257.607 46.4453C257.998 45.6966 258.275 44.8991 258.438 44.0527C258.665 43.9225 258.975 43.7923 259.365 43.6621C259.788 43.5319 260.228 43.4017 260.684 43.2715C261.172 43.1413 261.628 43.0273 262.051 42.9297C262.507 42.7995 262.881 42.6855 263.174 42.5879C263.955 42.36 264.704 42.0996 265.42 41.8066C266.169 41.4811 266.917 41.1882 267.666 40.9277C268.447 40.6673 269.212 40.4395 269.961 40.2441C270.742 40.0488 271.54 39.9349 272.354 39.9023L273.867 39.8535C275.267 39.8535 276.699 39.9837 278.164 40.2441C279.629 40.472 281.061 40.8464 282.461 41.3672C283.861 41.888 285.179 42.5391 286.416 43.3203C287.686 44.069 288.809 44.9642 289.785 46.0059C290.501 46.7871 291.087 47.7148 291.543 48.7891C292.031 49.8307 292.406 50.9375 292.666 52.1094C292.959 53.2812 293.154 54.4694 293.252 55.6738C293.382 56.8457 293.447 57.9362 293.447 58.9453C293.447 60.3125 293.398 61.6634 293.301 62.998C293.236 64.3001 293.203 65.6348 293.203 67.002C293.203 68.304 293.268 69.6061 293.398 70.9082C293.561 72.1777 293.74 73.4635 293.936 74.7656C294.131 76.0352 294.294 77.321 294.424 78.623C294.587 79.8926 294.668 81.1621 294.668 82.4316C294.733 83.2129 294.831 83.7012 294.961 83.8965C295.124 84.0592 295.286 84.1406 295.449 84.1406C296.165 84.1406 296.735 83.929 297.158 83.5059C297.614 83.0501 298.021 82.5618 298.379 82.041C298.737 81.4876 299.128 80.9831 299.551 80.5273C299.974 80.0716 300.511 79.8438 301.162 79.8438C301.455 79.8438 301.748 79.86 302.041 79.8926C302.367 79.9251 302.66 80.0065 302.92 80.1367C303.18 80.2344 303.392 80.3971 303.555 80.625C303.717 80.8203 303.799 81.097 303.799 81.4551ZM287.734 69.2969C287.734 69.1016 287.718 68.7598 287.686 68.2715C287.686 67.7832 287.653 67.2949 287.588 66.8066C287.523 66.2858 287.409 65.8301 287.246 65.4395C287.116 65.0488 286.904 64.8535 286.611 64.8535C286.546 64.8535 286.465 64.8861 286.367 64.9512C286.27 64.9837 286.188 65 286.123 65C284.886 65.6836 283.828 66.2533 282.949 66.709C282.07 67.1322 281.191 67.4902 280.312 67.7832C279.466 68.0436 278.555 68.2227 277.578 68.3203C276.602 68.418 275.381 68.4668 273.916 68.4668C273.721 68.4668 273.184 68.5482 272.305 68.7109C271.426 68.8737 270.465 69.069 269.424 69.2969C268.382 69.4922 267.406 69.7038 266.494 69.9316C265.583 70.127 265.013 70.2572 264.785 70.3223C264.362 70.485 264.053 70.6478 263.857 70.8105C263.695 70.9733 263.564 71.1523 263.467 71.3477C263.369 71.543 263.271 71.7546 263.174 71.9824C263.076 72.1777 262.897 72.3893 262.637 72.6172C262.311 72.8776 261.953 73.0892 261.562 73.252C261.204 73.4147 260.863 73.6589 260.537 73.9844C260.049 74.4727 259.593 75.1237 259.17 75.9375C258.747 76.7188 258.535 77.4674 258.535 78.1836C258.535 79.0625 258.763 79.8438 259.219 80.5273C259.674 81.2109 260.277 81.7969 261.025 82.2852C261.774 82.7734 262.62 83.1966 263.564 83.5547C264.508 83.9128 265.452 84.1895 266.396 84.3848C267.373 84.5801 268.301 84.7266 269.18 84.8242C270.091 84.9219 270.872 84.9707 271.523 84.9707C272.305 84.9707 273.232 84.9219 274.307 84.8242C275.381 84.694 276.455 84.515 277.529 84.2871C278.604 84.0267 279.613 83.6849 280.557 83.2617C281.501 82.8385 282.249 82.3014 282.803 81.6504C283.031 81.39 283.193 81.1621 283.291 80.9668C283.389 80.7389 283.486 80.5273 283.584 80.332C283.714 80.1042 283.844 79.8763 283.975 79.6484C284.137 79.4206 284.382 79.1764 284.707 78.916C285.456 78.2975 286.025 77.6139 286.416 76.8652C286.839 76.1165 287.148 75.3353 287.344 74.5215C287.539 73.7077 287.653 72.8613 287.686 71.9824C287.718 71.1035 287.734 70.2083 287.734 69.2969ZM360.83 54.3555C360.83 55.0065 360.7 55.5599 360.439 56.0156C360.179 56.4714 359.886 56.9108 359.561 57.334C359.268 57.7246 358.958 58.1315 358.633 58.5547C358.34 58.9779 358.145 59.4824 358.047 60.0684C357.754 59.9382 357.445 59.8568 357.119 59.8242C356.826 59.7917 356.517 59.7754 356.191 59.7754C355.41 59.7754 354.629 59.8405 353.848 59.9707C353.099 60.0684 352.35 60.1172 351.602 60.1172C350.723 60.1172 349.99 59.8568 349.404 59.3359C348.851 58.7826 348.395 58.1152 348.037 57.334C347.712 56.5527 347.484 55.7227 347.354 54.8438C347.223 53.9323 347.158 53.1185 347.158 52.4023C347.158 51.4909 347.305 50.5632 347.598 49.6191C347.337 49.5215 347.109 49.4727 346.914 49.4727C346.491 49.4727 346.182 49.6029 345.986 49.8633C345.824 50.1237 345.579 50.2539 345.254 50.2539C344.961 50.2539 344.701 50.1562 344.473 49.9609C344.245 49.7331 343.968 49.6191 343.643 49.6191C343.154 49.6191 342.536 49.7819 341.787 50.1074C341.071 50.4004 340.371 50.791 339.688 51.2793C339.004 51.7676 338.402 52.3047 337.881 52.8906C337.393 53.444 337.148 53.9811 337.148 54.502C336.465 54.5671 335.814 54.7624 335.195 55.0879C334.609 55.3809 334.04 55.7064 333.486 56.0645C333.063 56.3249 332.705 56.7318 332.412 57.2852C332.119 57.8385 331.842 58.4408 331.582 59.0918C331.354 59.7103 331.11 60.3451 330.85 60.9961C330.622 61.6471 330.345 62.1842 330.02 62.6074C329.466 63.3236 328.978 64.056 328.555 64.8047C328.164 65.5208 327.969 66.3346 327.969 67.2461C327.969 68.3854 328.148 69.541 328.506 70.7129C328.864 71.8848 329.043 73.0729 329.043 74.2773C329.043 75.0586 328.978 75.8398 328.848 76.6211C328.75 77.4023 328.701 78.1673 328.701 78.916C328.701 79.8275 328.864 80.5599 329.189 81.1133C329.515 81.6667 329.954 82.1061 330.508 82.4316C331.061 82.7246 331.696 82.9199 332.412 83.0176C333.128 83.1152 333.861 83.1641 334.609 83.1641C335.423 83.1641 336.204 83.1478 336.953 83.1152C337.734 83.0501 338.451 83.0176 339.102 83.0176C339.329 83.278 339.46 83.5221 339.492 83.75C339.525 83.9779 339.508 84.222 339.443 84.4824C339.411 84.7103 339.346 84.9544 339.248 85.2148C339.183 85.4427 339.15 85.7194 339.15 86.0449C339.15 86.1751 339.183 86.3379 339.248 86.5332C339.736 86.5332 340.16 86.4193 340.518 86.1914C340.876 85.9635 341.136 85.6055 341.299 85.1172C341.527 85.1823 341.722 85.2799 341.885 85.4102C342.08 85.5404 342.178 85.7357 342.178 85.9961C342.178 86.1914 342.129 86.3867 342.031 86.582C341.934 86.7448 341.82 86.9076 341.689 87.0703C341.559 87.2331 341.445 87.4121 341.348 87.6074C341.25 87.7702 341.201 87.9655 341.201 88.1934C341.201 88.3236 341.217 88.4701 341.25 88.6328C341.283 88.763 341.331 88.877 341.396 88.9746C341.234 89.235 341.006 89.4141 340.713 89.5117C340.42 89.6094 340.127 89.6582 339.834 89.6582C339.313 89.6582 338.874 89.5768 338.516 89.4141C338.19 89.2513 337.881 89.0723 337.588 88.877C337.327 88.6816 337.083 88.5026 336.855 88.3398C336.628 88.1771 336.351 88.0957 336.025 88.0957C335.895 88.0957 335.7 88.1283 335.439 88.1934C335.179 88.2585 334.919 88.3398 334.658 88.4375C334.398 88.5352 334.17 88.6654 333.975 88.8281C333.779 88.9583 333.682 89.0885 333.682 89.2188C333.682 89.4792 333.763 89.707 333.926 89.9023C334.121 90.0977 334.219 90.3255 334.219 90.5859C334.219 90.8138 334.137 90.9928 333.975 91.123C333.812 91.2533 333.617 91.3346 333.389 91.3672C333.161 91.4323 332.917 91.4648 332.656 91.4648C332.428 91.4974 332.233 91.5137 332.07 91.5137C330.801 91.5137 329.531 91.3672 328.262 91.0742C327.025 90.8138 325.771 90.6836 324.502 90.6836C323.916 90.6836 323.33 90.8138 322.744 91.0742C322.158 91.3346 321.54 91.4648 320.889 91.4648C320.531 91.4648 320.254 91.3835 320.059 91.2207C319.896 91.0905 319.749 90.9277 319.619 90.7324C319.489 90.5371 319.342 90.3581 319.18 90.1953C319.017 90.0651 318.773 90 318.447 90C317.829 90 317.21 90.0651 316.592 90.1953C316.006 90.3255 315.404 90.4557 314.785 90.5859C314.199 90.7487 313.597 90.8789 312.979 90.9766C312.393 91.1068 311.79 91.1719 311.172 91.1719C310.846 91.1719 310.456 91.123 310 91.0254C309.544 90.9603 309.105 90.8301 308.682 90.6348C308.258 90.4395 307.9 90.1953 307.607 89.9023C307.314 89.6094 307.168 89.2513 307.168 88.8281C307.168 88.5677 307.314 88.2259 307.607 87.8027C307.933 87.3796 308.291 86.9727 308.682 86.582C309.072 86.1589 309.463 85.8008 309.854 85.5078C310.244 85.2148 310.537 85.0684 310.732 85.0684C311.253 85.0684 311.758 85.0846 312.246 85.1172C312.767 85.1497 313.304 85.166 313.857 85.166C314.736 85.166 315.615 85.0358 316.494 84.7754C317.406 84.4824 318.219 84.0755 318.936 83.5547C319.684 83.0339 320.286 82.3828 320.742 81.6016C321.198 80.8203 321.426 79.9414 321.426 78.9648C321.426 78.5417 321.393 78.1348 321.328 77.7441C321.263 77.321 321.23 76.8978 321.23 76.4746C321.23 75.6283 321.328 74.7819 321.523 73.9355C321.719 73.0892 321.816 72.2428 321.816 71.3965C321.816 70.2572 321.686 69.1016 321.426 67.9297C321.198 66.7253 321.084 65.5208 321.084 64.3164C321.084 63.2422 321.1 62.1842 321.133 61.1426C321.198 60.0684 321.23 58.9941 321.23 57.9199C321.23 57.4316 321.214 56.7155 321.182 55.7715C321.149 54.8275 321.035 53.8835 320.84 52.9395C320.677 51.9954 320.4 51.1654 320.01 50.4492C319.652 49.7331 319.147 49.375 318.496 49.375C317.78 49.375 317.064 49.4564 316.348 49.6191C315.632 49.7819 314.899 49.8633 314.15 49.8633C313.597 49.8633 312.946 49.8307 312.197 49.7656C311.449 49.668 310.732 49.5052 310.049 49.2773C309.365 49.0169 308.779 48.6589 308.291 48.2031C307.803 47.7474 307.559 47.1452 307.559 46.3965C307.559 45.5827 307.673 44.9316 307.9 44.4434C308.128 43.9225 308.421 43.5319 308.779 43.2715C309.17 43.0111 309.609 42.832 310.098 42.7344C310.618 42.6367 311.172 42.5879 311.758 42.5879C312.279 42.5879 312.816 42.6042 313.369 42.6367C313.923 42.6693 314.46 42.6855 314.98 42.6855C316.022 42.6855 317.048 42.6367 318.057 42.5391C319.098 42.4089 320.14 42.3438 321.182 42.3438C321.898 42.3438 322.614 42.3763 323.33 42.4414C324.046 42.5065 324.746 42.653 325.43 42.8809C326.048 43.0762 326.504 43.4505 326.797 44.0039C327.09 44.5247 327.35 45.0618 327.578 45.6152C327.839 46.1686 328.132 46.6732 328.457 47.1289C328.783 47.5521 329.303 47.7637 330.02 47.7637C330.345 47.7637 330.638 47.6823 330.898 47.5195C331.191 47.3242 331.468 47.1126 331.729 46.8848C331.989 46.6569 332.249 46.4453 332.51 46.25C332.77 46.0547 333.079 45.9245 333.438 45.8594C334.154 45.7617 334.805 45.5339 335.391 45.1758C336.009 44.8177 336.611 44.4596 337.197 44.1016C337.783 43.7435 338.369 43.418 338.955 43.125C339.574 42.832 340.241 42.6855 340.957 42.6855C341.38 42.6855 341.901 42.6367 342.52 42.5391C343.171 42.4414 343.805 42.3112 344.424 42.1484C345.075 41.9531 345.677 41.7253 346.23 41.4648C346.816 41.2044 347.272 40.9115 347.598 40.5859C348.477 40.651 349.502 40.8626 350.674 41.2207C351.878 41.5788 353.018 42.0671 354.092 42.6855C355.199 43.2715 356.159 43.9714 356.973 44.7852C357.786 45.599 358.258 46.5104 358.389 47.5195C358.486 48.138 358.665 48.724 358.926 49.2773C359.186 49.8307 359.447 50.3841 359.707 50.9375C360 51.4583 360.26 52.0117 360.488 52.5977C360.716 53.151 360.83 53.737 360.83 54.3555Z" fill="#B690FF"/>
</svg>
